<?xml version="1.0" encoding="UTF-8" standalone="no"?>
<!-- Created with Inkscape (http://www.inkscape.org/) -->

<svg
   version="1.1"
   id="svg1"
   width="755.90533"
   height="453.54266"
   viewBox="0 0 755.90533 453.54266"
   sodipodi:docname="upload_uxnzlflswekmsszk5gk2bp66qp.pdf"
   xmlns:inkscape="http://www.inkscape.org/namespaces/inkscape"
   xmlns:sodipodi="http://sodipodi.sourceforge.net/DTD/sodipodi-0.dtd"
   xmlns="http://www.w3.org/2000/svg"
   xmlns:svg="http://www.w3.org/2000/svg">
  <defs
     id="defs1">
    <clipPath
       clipPathUnits="userSpaceOnUse"
       id="clipPath1">
      <path
         d="M 0,340.157 H 566.929 V 0 H 0 Z"
         id="path1" />
    </clipPath>
    <clipPath
       clipPathUnits="userSpaceOnUse"
       id="clipPath2">
      <path
         d="M 0,340.157 H 566.929 V 0 H 0 Z"
         id="path2" />
    </clipPath>
    <clipPath
       clipPathUnits="userSpaceOnUse"
       id="clipPath3">
      <path
         d="M 0,340.157 H 566.929 V 0 H 0 Z"
         id="path3" />
    </clipPath>
    <clipPath
       clipPathUnits="userSpaceOnUse"
       id="clipPath4">
      <path
         d="M 0,340.157 H 566.929 V 0 H 0 Z"
         id="path4" />
    </clipPath>
    <clipPath
       clipPathUnits="userSpaceOnUse"
       id="clipPath5">
      <path
         d="M 0,340.157 H 566.929 V 0 H 0 Z"
         transform="translate(-67.884401,-333.92131)"
         id="path5" />
    </clipPath>
    <clipPath
       clipPathUnits="userSpaceOnUse"
       id="clipPath14">
      <path
         d="M 0,0 H 566.929 V 340.157 H 0 Z"
         transform="translate(-177.5562,-172.886)"
         id="path14" />
    </clipPath>
    <clipPath
       clipPathUnits="userSpaceOnUse"
       id="clipPath33">
      <path
         d="M 0,0 H 566.929 V 340.157 H 0 Z"
         transform="translate(-236.7688,-140.02181)"
         id="path33" />
    </clipPath>
    <clipPath
       clipPathUnits="userSpaceOnUse"
       id="clipPath36">
      <path
         d="M 0,0 H 566.929 V 340.157 H 0 Z"
         transform="translate(-262.0183,-127.7742)"
         id="path36" />
    </clipPath>
    <clipPath
       clipPathUnits="userSpaceOnUse"
       id="clipPath39">
      <path
         d="M 0,0 H 566.929 V 340.157 H 0 Z"
         transform="translate(-288.25111,-127.6158)"
         id="path39" />
    </clipPath>
    <clipPath
       clipPathUnits="userSpaceOnUse"
       id="clipPath42">
      <path
         d="M 0,0 H 566.929 V 340.157 H 0 Z"
         transform="translate(-312.49871,-127.7742)"
         id="path42" />
    </clipPath>
    <clipPath
       clipPathUnits="userSpaceOnUse"
       id="clipPath47">
      <path
         d="M 0,0 H 566.929 V 340.157 H 0 Z"
         transform="translate(-349.34361,-127.7742)"
         id="path47" />
    </clipPath>
    <clipPath
       clipPathUnits="userSpaceOnUse"
       id="clipPath50">
      <path
         d="M 0,0 H 566.929 V 340.157 H 0 Z"
         transform="translate(-365.39041,-127.7742)"
         id="path50" />
    </clipPath>
    <clipPath
       clipPathUnits="userSpaceOnUse"
       id="clipPath54">
      <path
         d="M 0,0 H 566.929 V 340.157 H 0 Z"
         transform="translate(-408.72301,-127.5629)"
         id="path54" />
    </clipPath>
    <clipPath
       clipPathUnits="userSpaceOnUse"
       id="clipPath59">
      <path
         d="M 0,0 H 566.929 V 340.157 H 0 Z"
         transform="translate(-370.63881,-182.3)"
         id="path59" />
    </clipPath>
  </defs>
  <sodipodi:namedview
     id="namedview1"
     pagecolor="#ffffff"
     bordercolor="#000000"
     borderopacity="0.25"
     inkscape:showpageshadow="2"
     inkscape:pageopacity="0.0"
     inkscape:pagecheckerboard="0"
     inkscape:deskcolor="#d1d1d1">
    <inkscape:page
       x="0"
       y="0"
       inkscape:label="1"
       id="page1"
       width="755.90533"
       height="453.54266"
       margin="0"
       bleed="0" />
  </sodipodi:namedview>
  <g
     id="g1"
     inkscape:groupmode="layer"
     inkscape:label="1">
    <g
       id="g10">
      <path
         d="M -4.535,-4.567 H 566.93 V 16.132 H -4.535 Z"
         style="fill:#d60b52;fill-opacity:1;fill-rule:nonzero;stroke:none"
         transform="matrix(1.3333333,0,0,-1.3333333,0,453.54267)"
         clip-path="url(#clipPath1)"
         id="path6" />
      <path
         d="M 3.45,3.13 H 563.48 V 336.708 H 3.45 Z"
         style="fill:none;stroke:#d60b52;stroke-width:6.9;stroke-linecap:butt;stroke-linejoin:miter;stroke-miterlimit:4;stroke-dasharray:none;stroke-opacity:1"
         transform="matrix(1.3333333,0,0,-1.3333333,0,453.54267)"
         clip-path="url(#clipPath2)"
         id="path7" />
      <path
         d="m 60.838,324.304 h 14.093 v 23.872 H 60.838 Z"
         style="fill:#ffffff;fill-opacity:1;fill-rule:nonzero;stroke:none"
         transform="matrix(1.3333333,0,0,-1.3333333,0,453.54267)"
         clip-path="url(#clipPath3)"
         id="path8" />
      <path
         d="m 496.53,-3.494 h 14.094 V 20.378 H 496.53 Z"
         style="fill:#ffffff;fill-opacity:1;fill-rule:nonzero;stroke:none"
         transform="matrix(1.3333333,0,0,-1.3333333,0,453.54267)"
         clip-path="url(#clipPath4)"
         id="path9" />
      <path
         d="M 0,0 C 1.519,0 2.75,1.231 2.75,2.75 2.75,4.269 1.519,5.501 0,5.501 -1.519,5.501 -2.75,4.269 -2.75,2.75 -2.75,1.231 -1.519,0 0,0"
         style="fill:#d60b52;fill-opacity:1;fill-rule:nonzero;stroke:none"
         transform="matrix(1.3333333,0,0,-1.3333333,90.512533,8.3142667)"
         clip-path="url(#clipPath5)"
         id="path10" />
    </g>
    <g
       id="g11">
      <path
         id="path11"
         d="m 2.5063531,-4.0316344 -0.1875,3.58593752 c -0.00879,0.18164063 -0.076172,0.29882813 -0.1992187,0.3515625 l -0.3632813,0.1875 V -3.7035094 H 0.81885312 L 1.0766656,-4.0550719 c 0.099609,-0.1464844 0.2460938,-0.2226562 0.4335938,-0.2226562 h 0.7851562 c 0.1464844,0 0.2167969,0.082031 0.2109375,0.2460937 z m 3.9785156,3.45703127 -0.1523437,0.33984375 c -0.070312,0.15820313 -0.1962891,0.234375005 -0.375,0.234375005 H 3.66065 c -0.1025391,0 -0.1523438,-0.046875005 -0.1523438,-0.140625005 0,-0.046875 0.017578,-0.0966797 0.058594,-0.15234375 L 5.5590875,-2.8246031 c 0.099609,-0.131836 0.1523437,-0.2695313 0.1523437,-0.4101563 0,-0.1318359 -0.046875,-0.2402344 -0.140625,-0.328125 -0.09375,-0.09375 -0.2226562,-0.140625 -0.3867187,-0.140625 H 3.7426812 l 0.1757813,-0.3398437 c 0.076172,-0.1552735 0.2021484,-0.234375 0.375,-0.234375 H 5.113775 c 0.4365234,0 0.7675781,0.2050781 0.9960937,0.609375 l 0.046875,0.1171875 c 0.084961,0.1582031 0.1289063,0.3164062 0.1289063,0.4804687 0,0.2519531 -0.099609,0.4892578 -0.2929688,0.7148438 l -1.5234375,1.78124997 z m 0,0"
         style="fill:#d60b52;fill-opacity:1;fill-rule:nonzero;stroke:none"
         aria-label="12"
         transform="matrix(1.3333333,0,0,1.3333333,666.99413,447.5552)" />
    </g>
    <g
       id="g12">
      <path
         id="path12"
         d="M 0,0 H 566.929 V 340.158 H 0 Z"
         style="fill:#08050a;fill-opacity:1;fill-rule:nonzero;stroke:none"
         transform="matrix(1.3333333,0,0,-1.3333333,0,453.54267)" />
    </g>
    <g
       id="g13">
      <path
         id="path13"
         d="m 0,0 c 0.343,0.429 0.944,0.472 1.332,0.129 2.231,-1.804 5.968,-3.907 9.874,-3.864 2.619,0 4.981,0.773 6.613,1.974 1.674,1.203 2.577,2.791 2.577,4.466 0,1.718 -0.817,3.005 -2.448,4.123 C 16.316,7.9 13.911,8.716 10.992,9.273 H 10.906 C 8.115,9.79 5.667,10.563 3.822,11.808 1.976,13.01 0.73,14.814 0.73,17.045 c 0,2.276 1.246,4.252 3.135,5.626 1.888,1.373 4.421,2.189 7.255,2.189 3.951,0 6.914,-1.931 9.276,-3.478 0.429,-0.3 0.557,-0.858 0.257,-1.33 -0.257,-0.43 -0.86,-0.559 -1.289,-0.259 -2.362,1.547 -4.938,3.179 -8.244,3.179 -2.447,0 -4.637,-0.731 -6.139,-1.804 -1.504,-1.116 -2.362,-2.576 -2.362,-4.123 0.043,-1.502 0.73,-2.617 2.233,-3.649 1.502,-1.03 3.735,-1.759 6.44,-2.276 h 0.086 c 3.005,-0.557 5.667,-1.416 7.643,-2.748 1.975,-1.287 3.306,-3.263 3.306,-5.667 0,-2.405 -1.374,-4.552 -3.392,-6.011 -2.018,-1.46 -4.723,-2.361 -7.729,-2.361 C 6.613,-5.625 2.619,-3.306 0.129,-1.33 -0.257,-0.987 -0.3,-0.386 0,0"
         style="fill:#ffffff;fill-opacity:1;fill-rule:nonzero;stroke:none"
         transform="matrix(1.3333333,0,0,-1.3333333,236.7416,223.028)"
         clip-path="url(#clipPath14)" />
    </g>
    <g
       id="g14">
      <path
         id="path15"
         d="m 0,0 h -15.458 v -12.967 c 0,-0.558 -0.472,-1.03 -1.072,-1.03 -0.558,0 -1.03,0.472 -1.03,1.03 v 27.995 c 0,0.558 0.472,1.03 1.03,1.03 0.6,0 1.072,-0.472 1.072,-1.03 V 2.061 H 0 v 12.967 c 0,0.558 0.472,1.03 1.03,1.03 0.602,0 1.074,-0.472 1.074,-1.03 v -27.995 c 0,-0.558 -0.472,-1.03 -1.074,-1.03 -0.558,0 -1.03,0.472 -1.03,1.03 z"
         style="fill:#ffffff;fill-opacity:1;fill-rule:nonzero;stroke:none"
         transform="matrix(1.3333333,0,0,-1.3333333,299.88787,211.86467)" />
    </g>
    <g
       id="g15">
      <path
         id="path16"
         d="m 0,0 10.734,-25.548 7.641,18.077 c 0.215,0.386 0.603,0.643 0.989,0.643 0.472,0 0.858,-0.257 1.073,-0.643 l 7.6,-18.077 L 38.771,0 c 0.257,0.515 0.815,0.772 1.416,0.515 0.516,-0.214 0.774,-0.858 0.516,-1.373 L 29.024,-28.596 c -0.172,-0.386 -0.558,-0.644 -0.858,-0.687 H 28.08 27.951 c -0.172,0 -0.343,0.043 -0.515,0.172 -0.043,0.043 -0.129,0.086 -0.172,0.171 -0.042,0.043 -0.128,0.172 -0.171,0.258 0,0.043 0,0.086 -0.043,0.129 l -7.643,18.162 -7.686,-18.162 c 0,-0.086 -0.043,-0.172 -0.086,-0.215 -0.043,-0.129 -0.129,-0.214 -0.214,-0.3 -0.043,0 -0.086,-0.043 -0.086,-0.043 -0.172,-0.129 -0.386,-0.172 -0.601,-0.172 -0.257,0 -0.474,0.086 -0.645,0.215 l -0.086,0.086 -0.043,0.042 c -0.129,0.129 -0.214,0.301 -0.257,0.515 L -1.89,-0.858 c -0.257,0.515 0,1.159 0.515,1.373 C -0.86,0.772 -0.215,0.515 0,0"
         style="fill:#ffffff;fill-opacity:1;fill-rule:nonzero;stroke:none"
         transform="matrix(1.3333333,0,0,-1.3333333,314.25933,191.48347)" />
    </g>
    <g
       id="g16">
      <path
         id="path17"
         d="m 0,0 h -13.697 l -2.662,-7.085 c -0.171,-0.429 -0.559,-0.687 -0.988,-0.687 -0.086,0 -0.258,0.043 -0.386,0.043 -0.515,0.215 -0.816,0.858 -0.601,1.375 L -7.9,21.511 c 0.171,0.386 0.6,0.644 1.03,0.644 0.471,0 0.901,-0.258 1.029,-0.644 L 4.593,-6.354 c 0.215,-0.517 -0.043,-1.16 -0.558,-1.375 -0.171,0 -0.257,-0.043 -0.386,-0.043 -0.386,0 -0.815,0.258 -0.987,0.687 z m -12.924,2.104 h 12.15 l -6.054,16.144 z"
         style="fill:#ffffff;fill-opacity:1;fill-rule:nonzero;stroke:none"
         transform="matrix(1.3333333,0,0,-1.3333333,391.7748,220.16507)" />
    </g>
    <g
       id="g17">
      <path
         id="path18"
         d="m 0,0 h -0.172 c -0.515,0.043 -0.944,0.472 -0.944,1.03 v 27.995 c 0,0.558 0.472,1.03 1.03,1.03 h 0.129 5.496 c 8.286,0 15.028,-6.783 15.028,-15.071 C 20.567,6.697 13.825,0 5.539,0 Z m 5.539,2.104 c 7.128,0 12.924,5.754 12.924,12.88 0,7.171 -5.796,12.924 -12.924,12.967 H 0.987 V 2.104 Z"
         style="fill:#ffffff;fill-opacity:1;fill-rule:nonzero;stroke:none"
         transform="matrix(1.3333333,0,0,-1.3333333,408.03453,230.52733)" />
    </g>
    <g
       id="g18">
      <path
         id="path19"
         d="m 0,0 c 0,2.19 -1.116,3.565 -2.448,4.552 -1.33,0.944 -2.919,1.417 -3.477,1.503 -0.129,0.043 -0.171,0.086 -0.214,0.086 h -7.3 V -5.753 c 0,-0.558 -0.472,-1.03 -1.073,-1.03 -0.558,0 -1.031,0.472 -1.031,1.03 v 27.995 c 0,0.515 0.43,0.987 0.945,1.03 h 0.086 0.129 8.372 c 4.724,0 8.544,-3.821 8.544,-8.587 0,-3.434 -2.018,-6.398 -4.938,-7.772 0.129,-0.085 0.258,-0.128 0.43,-0.214 C 0,5.582 2.061,3.393 2.061,0 c 0,-1.76 0.172,-2.834 0.387,-3.478 0.171,-0.514 0.386,-0.686 0.429,-0.729 0.472,0.043 0.987,-0.215 1.16,-0.687 0.129,-0.559 -0.131,-1.16 -0.688,-1.374 -0.043,0 -0.258,-0.043 -0.515,-0.043 H 2.748 c -0.558,0 -1.459,0.429 -1.933,1.375 C 0.3,-3.95 0,-2.532 0,0 m -6.011,21.168 h -7.428 V 8.201 h 7.214 0.386 c 3.477,0.086 6.311,2.964 6.311,6.484 0,3.606 -2.92,6.483 -6.483,6.483"
         style="fill:#ffffff;fill-opacity:1;fill-rule:nonzero;stroke:none"
         transform="matrix(1.3333333,0,0,-1.3333333,466.19853,221.48307)" />
    </g>
    <g
       id="g19">
      <path
         id="path20"
         d="M 0,0 C 8.029,0 14.342,-6.826 14.385,-15.241 14.342,-23.659 8.029,-30.484 0,-30.484 c -8.115,0 -14.469,6.825 -14.512,15.243 C -14.469,-6.826 -8.115,0 0,0 m 0,-28.38 c 6.613,0 12.195,5.796 12.238,13.139 C 12.195,-7.815 6.613,-2.146 0,-2.146 c -6.826,0 -12.408,-5.669 -12.408,-13.095 0,-7.343 5.582,-13.139 12.408,-13.139"
         style="fill:#ffffff;fill-opacity:1;fill-rule:nonzero;stroke:none"
         transform="matrix(1.3333333,0,0,-1.3333333,498.3724,189.88147)" />
    </g>
    <g
       id="g20">
      <path
         id="path21"
         d="m 0,0 v -24.604 c 0,-0.558 -0.472,-1.03 -1.03,-1.03 -0.558,0 -1.03,0.472 -1.03,1.03 V 2.963 c -0.128,0.429 0,0.858 0.387,1.158 0.472,0.301 1.158,0.215 1.459,-0.257 L 17.991,-21.382 V 3.091 c 0,0.558 0.472,1.03 1.03,1.03 0.602,0 1.074,-0.472 1.074,-1.03 v -27.695 c 0,-0.558 -0.472,-1.03 -1.074,-1.03 -0.344,0 -0.601,0.129 -0.816,0.387 -0.042,0.042 -0.128,0.085 -0.171,0.171 z"
         style="fill:#ffffff;fill-opacity:1;fill-rule:nonzero;stroke:none"
         transform="matrix(1.3333333,0,0,-1.3333333,530.6056,196.34907)" />
    </g>
    <g
       id="g21">
      <path
         id="path22"
         d="M 0,0 C 1.203,0 2.147,-0.946 2.147,-2.147 2.147,-3.35 1.203,-4.294 0,-4.294 c -1.201,0 -2.147,0.944 -2.147,2.147 C -2.147,-0.946 -1.201,0 0,0"
         style="fill:#ffffff;fill-opacity:1;fill-rule:nonzero;stroke:none"
         transform="matrix(1.3333333,0,0,-1.3333333,573.14387,224.8016)" />
    </g>
    <g
       id="g22">
      <path
         id="path23"
         d="m 0,0 h -13.697 l -2.662,-7.085 c -0.171,-0.429 -0.559,-0.687 -0.988,-0.687 -0.086,0 -0.258,0.043 -0.387,0.043 -0.514,0.215 -0.815,0.858 -0.6,1.375 l 10.433,27.865 c 0.172,0.386 0.601,0.644 1.03,0.644 0.472,0 0.902,-0.258 1.03,-0.644 L 4.593,-6.354 c 0.214,-0.517 -0.043,-1.16 -0.558,-1.375 -0.171,0 -0.257,-0.043 -0.386,-0.043 -0.386,0 -0.815,0.258 -0.987,0.687 z m -12.924,2.104 h 12.15 l -6.054,16.144 z"
         style="fill:#ffffff;fill-opacity:1;fill-rule:nonzero;stroke:none"
         transform="matrix(1.3333333,0,0,-1.3333333,606.3476,220.16507)" />
    </g>
    <g
       id="g23">
      <path
         id="path24"
         d="M 0,0 C 0,0.558 0.472,1.03 1.03,1.03 1.631,1.03 2.104,0.558 2.104,0 v -27.995 c 0,-0.558 -0.473,-1.03 -1.074,-1.03 -0.558,0 -1.03,0.472 -1.03,1.03 z"
         style="fill:#ffffff;fill-opacity:1;fill-rule:nonzero;stroke:none"
         transform="matrix(1.3333333,0,0,-1.3333333,621.52013,191.8268)" />
    </g>
    <g
       id="g24">
      <path
         id="path25"
         d="m 0,0 v 8.886 c 0,0.766 -0.228,1.381 -0.68,1.845 -0.454,0.464 -1.056,0.695 -1.809,0.695 h -4.458 v 0.822 h 4.364 c 1.111,0 1.976,-0.306 2.598,-0.916 C 0.637,10.719 0.947,9.863 0.947,8.759 V 0 Z"
         style="fill:#ffffff;fill-opacity:1;fill-rule:nonzero;stroke:none"
         transform="matrix(1.3333333,0,0,-1.3333333,188.05067,283.17707)" />
    </g>
    <g
       id="g25">
      <path
         id="path26"
         d="m 0,0 c -0.906,0 -1.703,0.193 -2.388,0.581 -0.685,0.386 -1.216,0.928 -1.596,1.622 -0.38,0.697 -0.57,1.507 -0.57,2.435 v 7.821 h 0.95 V 4.681 c 0,-1.152 0.33,-2.085 0.99,-2.794 0.66,-0.71 1.528,-1.065 2.602,-1.065 1.077,0 1.944,0.355 2.605,1.065 0.66,0.709 0.99,1.642 0.99,2.794 v 4.553 c 0,0.837 -0.152,1.456 -0.459,1.86 -0.305,0.405 -0.774,0.607 -1.406,0.607 -0.345,0 -0.67,-0.041 -0.975,-0.122 -0.306,-0.08 -0.637,-0.204 -0.997,-0.374 l -0.253,0.727 c 0.401,0.203 0.786,0.359 1.156,0.464 0.367,0.106 0.764,0.159 1.184,0.159 0.9,0 1.575,-0.271 2.024,-0.812 0.45,-0.542 0.675,-1.354 0.675,-2.435 V 4.638 C 4.532,3.71 4.344,2.9 3.967,2.203 3.593,1.509 3.063,0.967 2.382,0.581 1.7,0.193 0.906,0 0,0"
         style="fill:#ffffff;fill-opacity:1;fill-rule:nonzero;stroke:none"
         transform="matrix(1.3333333,0,0,-1.3333333,201.82813,283.4588)" />
    </g>
    <g
       id="g26">
      <path
         id="path27"
         d="m 0,0 c -0.984,0 -1.847,0.231 -2.588,0.692 -0.741,0.458 -1.317,1.104 -1.728,1.934 -0.411,0.828 -0.62,1.797 -0.627,2.908 v 1.612 c 0,0.634 0.086,1.235 0.257,1.804 0.174,0.568 0.413,1.075 0.723,1.517 0.309,0.444 0.664,0.784 1.065,1.023 0.034,0.022 0.089,0.048 0.163,0.079 0.074,0.032 0.145,0.055 0.216,0.068 L -2.53,11.69 C -2.804,11.662 -3.182,11.588 -3.662,11.469 -4.144,11.35 -4.694,11.201 -5.313,11.026 l -0.209,0.801 c 0.539,0.162 1.12,0.3 1.738,0.416 0.618,0.117 1.236,0.208 1.85,0.275 0.615,0.066 1.186,0.099 1.713,0.099 1.039,0 1.949,-0.221 2.725,-0.663 C 3.279,11.512 3.881,10.881 4.306,10.068 4.732,9.252 4.944,8.297 4.944,7.199 V 5.534 C 4.944,4.423 4.737,3.454 4.322,2.626 3.906,1.796 3.33,1.15 2.593,0.692 1.855,0.231 0.992,0 0,0 m 0,0.855 c 0.794,0 1.492,0.195 2.093,0.584 0.6,0.39 1.067,0.934 1.401,1.634 0.335,0.7 0.501,1.517 0.501,2.451 v 1.675 c 0,0.921 -0.174,1.723 -0.521,2.405 -0.348,0.681 -0.835,1.209 -1.461,1.586 -0.625,0.376 -1.36,0.562 -2.203,0.562 -0.731,0 -1.375,-0.188 -1.934,-0.567 -0.558,-0.38 -1,-0.913 -1.327,-1.598 C -3.778,8.902 -3.956,8.095 -3.984,7.168 V 5.524 c 0,-0.934 0.165,-1.751 0.495,-2.451 0.33,-0.7 0.796,-1.244 1.396,-1.634 C -1.492,1.05 -0.794,0.855 0,0.855"
         style="fill:#ffffff;fill-opacity:1;fill-rule:nonzero;stroke:none"
         transform="matrix(1.3333333,0,0,-1.3333333,220.60747,283.4588)" />
    </g>
    <g
       id="g27">
      <path
         id="path28"
         d="m 0,0 -9.16,12.248 h 1.076 L 1.086,0 Z m -8.769,0 v 4.733 c 0,1.062 0.207,1.936 0.621,2.625 0.416,0.688 1.033,1.186 1.855,1.496 L -5.818,8.316 C -7.161,7.818 -7.831,6.679 -7.831,4.902 V 0 Z m 9.845,12.248 -4.363,-7.125 -0.666,0.685 3.932,6.44 z"
         style="fill:#ffffff;fill-opacity:1;fill-rule:nonzero;stroke:none"
         transform="matrix(1.3333333,0,0,-1.3333333,244.9516,283.17707)" />
    </g>
    <g
       id="g28">
      <path
         id="path29"
         d="m 0,0 1.055,8.475 c 0.077,0.597 0.257,1.152 0.543,1.665 0.284,0.513 0.622,0.893 1.016,1.139 0.05,0.034 0.103,0.063 0.159,0.084 0.056,0.021 0.109,0.041 0.158,0.063 L 2.92,11.478 C 2.54,11.422 2.107,11.333 1.624,11.21 1.139,11.087 0.579,10.924 -0.053,10.719 L -0.317,11.5 c 0.535,0.183 1.108,0.342 1.718,0.48 0.613,0.137 1.22,0.241 1.824,0.315 0.606,0.075 1.16,0.111 1.667,0.111 1.488,0 2.635,-0.407 3.441,-1.223 C 9.137,10.368 9.539,9.166 9.539,7.579 V 0 H 4.733 V 0.822 H 8.59 v 6.809 c 0,1.308 -0.31,2.286 -0.932,2.937 -0.622,0.648 -1.523,0.973 -2.704,0.973 -0.765,0 -1.417,-0.279 -1.955,-0.836 C 2.461,10.145 2.136,9.406 2.023,8.485 L 0.949,0 Z"
         style="fill:#ffffff;fill-opacity:1;fill-rule:nonzero;stroke:none"
         transform="matrix(1.3333333,0,0,-1.3333333,251.7864,283.17707)" />
    </g>
    <g
       id="g29">
      <path
         id="path30"
         d="M 0,0 V 4.765 H 0.949 V 0.822 H 8.328 V 0 Z M 8.77,0.242 3.953,-11.426 H 2.898 L 8.011,0.822 H 8.77 Z"
         style="fill:#ffffff;fill-opacity:1;fill-rule:nonzero;stroke:none"
         transform="matrix(1.3333333,0,0,-1.3333333,269.5248,267.9428)" />
    </g>
    <g
       id="g30">
      <path
         id="path31"
         d="m 0,0 v 15.811 h -6.651 v 0.822 H 0.937 L 0.937,0 Z"
         style="fill:#ffffff;fill-opacity:1;fill-rule:nonzero;stroke:none"
         transform="matrix(1.3333333,0,0,-1.3333333,301.9144,289.02373)" />
    </g>
    <g
       id="g31">
      <path
         id="path32"
         d="m 0,0 c 1.644,0 2.857,-0.385 3.636,-1.154 0.781,-0.769 1.17,-1.962 1.17,-3.578 v -7.516 H 3.847 v 7.505 c 0,1.399 -0.295,2.401 -0.884,3.01 -0.591,0.607 -1.568,0.911 -2.932,0.911 h -1.864 c -0.317,-0.373 -0.572,-0.904 -0.765,-1.596 -0.194,-0.693 -0.29,-1.432 -0.29,-2.22 v -4.606 c 0,-1.033 -0.223,-1.799 -0.67,-2.297 -0.446,-0.499 -1.119,-0.749 -2.019,-0.749 -0.147,0 -0.297,0.008 -0.447,0.021 -0.152,0.015 -0.312,0.031 -0.48,0.053 v 0.822 c 0.14,-0.02 0.274,-0.035 0.401,-0.042 0.127,-0.008 0.246,-0.011 0.358,-0.011 0.71,0 1.206,0.18 1.492,0.538 0.284,0.358 0.426,0.924 0.426,1.696 v 4.544 c 0,0.766 0.102,1.504 0.307,2.213 0.203,0.71 0.473,1.255 0.81,1.634 H -5.312 V 0 Z"
         style="fill:#ffffff;fill-opacity:1;fill-rule:nonzero;stroke:none"
         transform="matrix(1.3333333,0,0,-1.3333333,315.69173,266.84693)"
         clip-path="url(#clipPath33)" />
    </g>
    <g
       id="g33">
      <path
         id="path34"
         d="m 0,0 v 11.426 h -1.697 v 0.822 H 0.949 L 0.949,0 Z"
         style="fill:#ffffff;fill-opacity:1;fill-rule:nonzero;stroke:none"
         transform="matrix(1.3333333,0,0,-1.3333333,329.55293,283.17707)" />
    </g>
    <g
       id="g34">
      <path
         id="path35"
         d="m 0,0 -9.16,12.248 h 1.076 L 1.086,0 Z m -8.769,0 v 4.733 c 0,1.062 0.207,1.936 0.621,2.625 0.416,0.688 1.033,1.186 1.855,1.496 L -5.818,8.316 C -7.161,7.818 -7.831,6.679 -7.831,4.902 V 0 Z m 9.845,12.248 -4.364,-7.125 -0.665,0.685 3.932,6.44 z"
         style="fill:#ffffff;fill-opacity:1;fill-rule:nonzero;stroke:none"
         transform="matrix(1.3333333,0,0,-1.3333333,349.35773,283.17707)"
         clip-path="url(#clipPath36)" />
    </g>
    <g
       id="g36">
      <path
         id="path37"
         d="m 0,0 v 15.811 h -6.651 v 0.822 H 0.937 L 0.937,0 Z"
         style="fill:#ffffff;fill-opacity:1;fill-rule:nonzero;stroke:none"
         transform="matrix(1.3333333,0,0,-1.3333333,371.73907,289.02373)" />
    </g>
    <g
       id="g37">
      <path
         id="path38"
         d="m 0,0 c -0.52,0 -1.078,0.053 -1.675,0.158 -0.598,0.106 -1.213,0.26 -1.845,0.464 l 0.201,0.769 c 0.617,-0.19 1.211,-0.33 1.781,-0.421 0.569,-0.092 1.092,-0.133 1.571,-0.127 1.264,0.015 2.251,0.349 2.961,1.002 0.709,0.654 1.064,1.581 1.064,2.783 v 6.956 H -1.749 C -2.065,11.148 -2.322,10.576 -2.518,9.866 -2.715,9.156 -2.814,8.437 -2.814,7.706 V 6.567 C -2.525,6.433 -2.215,6.342 -1.881,6.293 -1.546,6.243 -1.046,6.219 -0.38,6.219 V 5.355 c -0.567,0 -1.044,0.017 -1.427,0.053 -0.383,0.035 -0.721,0.098 -1.017,0.19 -0.295,0.091 -0.605,0.216 -0.927,0.378 L -3.763,7.61 c 0,0.731 0.104,1.461 0.312,2.188 0.206,0.726 0.482,1.322 0.827,1.786 h -1.329 v 0.822 h 8.97 V 4.911 C 5.017,3.837 4.811,2.934 4.397,2.203 3.981,1.472 3.4,0.921 2.652,0.548 1.903,0.177 1.02,-0.007 0,0"
         style="fill:#ffffff;fill-opacity:1;fill-rule:nonzero;stroke:none"
         transform="matrix(1.3333333,0,0,-1.3333333,384.3348,283.38827)"
         clip-path="url(#clipPath39)" />
    </g>
    <g
       id="g39">
      <path
         id="path40"
         d="m 0,0 v 11.426 h -1.697 v 0.822 H 0.949 L 0.949,0 Z"
         style="fill:#ffffff;fill-opacity:1;fill-rule:nonzero;stroke:none"
         transform="matrix(1.3333333,0,0,-1.3333333,398.67347,283.17707)" />
    </g>
    <g
       id="g40">
      <path
         id="path41"
         d="m 0,0 v 7.516 c 0,1.391 -0.299,2.39 -0.895,2.999 -0.597,0.607 -1.585,0.911 -2.962,0.911 H -7.81 v 0.822 h 3.953 c 1.637,0 2.847,-0.385 3.631,-1.154 C 0.558,10.325 0.949,9.138 0.949,7.537 V 0 Z m -7.757,0 v 4.164 c 0,0.617 0.033,1.107 0.099,1.471 0.068,0.361 0.164,0.721 0.291,1.079 h 0.843 C -6.63,6.371 -6.707,6.001 -6.757,5.608 -6.805,5.214 -6.829,4.718 -6.829,4.121 V 0 Z"
         style="fill:#ffffff;fill-opacity:1;fill-rule:nonzero;stroke:none"
         transform="matrix(1.3333333,0,0,-1.3333333,416.66493,283.17707)"
         clip-path="url(#clipPath42)" />
    </g>
    <g
       id="g42">
      <path
         id="path43"
         d="M 0,0 C 0,0.203 0.069,0.376 0.206,0.522 0.343,0.665 0.521,0.738 0.739,0.738 0.964,0.738 1.144,0.665 1.281,0.522 1.418,0.376 1.487,0.203 1.487,0 1.487,-0.205 1.418,-0.375 1.281,-0.512 1.144,-0.649 0.964,-0.718 0.739,-0.718 0.521,-0.718 0.343,-0.649 0.206,-0.512 0.069,-0.375 0,-0.205 0,0"
         style="fill:#ffffff;fill-opacity:1;fill-rule:nonzero;stroke:none"
         transform="matrix(1.3333333,0,0,-1.3333333,432.062,282.3188)" />
    </g>
    <g
       id="g43">
      <path
         id="path44"
         d="m 0,0 v 15.811 h -1.697 v 0.822 H 0.949 L 0.949,0 Z"
         style="fill:#ffffff;fill-opacity:1;fill-rule:nonzero;stroke:none"
         transform="matrix(1.3333333,0,0,-1.3333333,441.51107,289.02373)" />
    </g>
    <g
       id="g44">
      <path
         id="path45"
         d="m 0,0 v 11.426 h -1.697 v 0.822 H 0.949 L 0.949,0 Z"
         style="fill:#ffffff;fill-opacity:1;fill-rule:nonzero;stroke:none"
         transform="matrix(1.3333333,0,0,-1.3333333,450.43853,283.17707)" />
    </g>
    <g
       id="g45">
      <path
         id="path46"
         d="m 0,0 v 8.886 c 0,0.766 -0.228,1.381 -0.68,1.845 -0.454,0.464 -1.056,0.695 -1.809,0.695 h -4.457 v 0.822 h 4.363 c 1.111,0 1.976,-0.306 2.598,-0.916 C 0.637,10.719 0.947,9.863 0.947,8.759 V 0 Z"
         style="fill:#ffffff;fill-opacity:1;fill-rule:nonzero;stroke:none"
         transform="matrix(1.3333333,0,0,-1.3333333,465.79147,283.17707)"
         clip-path="url(#clipPath47)" />
    </g>
    <g
       id="g47">
      <path
         id="path48"
         d="M 0,0 H 9.244 V -0.822 H 7.273 V -12.248 H 6.314 v 11.426 l -6.314,0 z"
         style="fill:#ffffff;fill-opacity:1;fill-rule:nonzero;stroke:none"
         transform="matrix(1.3333333,0,0,-1.3333333,471.69547,266.84693)" />
    </g>
    <g
       id="g48">
      <path
         id="path49"
         d="M 0,0 V 0.822 H 7.232 L 8.179,0.896 9.698,0.769 V 0 Z m 7.232,0.2 v 7.316 c 0,1.391 -0.299,2.39 -0.896,2.999 -0.598,0.607 -1.585,0.911 -2.963,0.911 H 0.665 v 0.822 h 2.708 c 1.638,0 2.847,-0.385 3.631,-1.154 C 7.788,10.325 8.179,9.138 8.179,7.537 V 0.2 Z"
         style="fill:#ffffff;fill-opacity:1;fill-rule:nonzero;stroke:none"
         transform="matrix(1.3333333,0,0,-1.3333333,487.1872,283.17707)"
         clip-path="url(#clipPath50)" />
    </g>
    <g
       id="g50">
      <path
         id="path51"
         d="m 0,0 v -10.666 c 0.725,-0.309 1.477,-0.55 2.261,-0.722 0.784,-0.173 1.545,-0.259 2.283,-0.259 0.996,0 1.911,0.147 2.739,0.442 0.83,0.296 1.492,0.74 1.987,1.334 0.495,0.594 0.745,1.337 0.745,2.23 V 0 h 0.937 v -7.684 c 0,-0.816 -0.167,-1.52 -0.5,-2.118 -0.335,-0.597 -0.796,-1.096 -1.381,-1.496 -0.588,-0.402 -1.265,-0.699 -2.03,-0.892 -0.766,-0.193 -1.582,-0.29 -2.445,-0.29 -0.907,0 -1.836,0.107 -2.789,0.322 -0.952,0.214 -1.866,0.529 -2.744,0.944 l 0,11.214 z m 3.436,-9.349 c 0.366,0.288 0.636,0.666 0.812,1.133 0.175,0.468 0.264,1.038 0.264,1.714 V 0 H 5.45 V -6.418 C 5.45,-7.122 5.36,-7.704 5.181,-8.168 5.002,-8.632 4.697,-9.064 4.27,-9.465 Z"
         style="fill:#ffffff;fill-opacity:1;fill-rule:nonzero;stroke:none"
         transform="matrix(1.3333333,0,0,-1.3333333,506.06547,266.84693)" />
    </g>
    <g
       id="g51">
      <path
         id="path52"
         d="m 0,0 v 15.811 h -1.697 v 0.822 H 0.949 L 0.949,0 Z"
         style="fill:#ffffff;fill-opacity:1;fill-rule:nonzero;stroke:none"
         transform="matrix(1.3333333,0,0,-1.3333333,536.58453,289.02373)" />
    </g>
    <g
       id="g52">
      <path
         id="path53"
         d="M 0,0 C -0.323,0 -0.63,0.018 -0.922,0.053 -1.215,0.089 -1.475,0.13 -1.708,0.18 l 0.084,0.822 c 0.395,-0.106 0.911,-0.158 1.55,-0.158 0.632,0 1.114,0.186 1.444,0.559 0.33,0.371 0.495,0.956 0.495,1.749 v 8.485 H -0.98 v 0.822 H 2.814 V 3.078 C 2.814,2.038 2.575,1.266 2.098,0.759 1.619,0.254 0.921,0 0,0"
         style="fill:#ffffff;fill-opacity:1;fill-rule:nonzero;stroke:none"
         transform="matrix(1.3333333,0,0,-1.3333333,544.964,283.4588)"
         clip-path="url(#clipPath54)" />
    </g>
    <g
       id="g54">
      <path
         id="path55"
         d="m 0,0 0.01,12.248 h 4.058 c 1.637,0 2.845,-0.385 3.626,-1.154 0.781,-0.769 1.17,-1.962 1.17,-3.578 V 0 H 7.915 v 7.504 c 0,1.4 -0.297,2.402 -0.891,3.011 -0.592,0.607 -1.568,0.911 -2.925,0.911 H 0.959 L 0.949,0 Z"
         style="fill:#ffffff;fill-opacity:1;fill-rule:nonzero;stroke:none"
         transform="matrix(1.3333333,0,0,-1.3333333,555.35493,283.17707)" />
    </g>
    <g
       id="g55">
      <path
         id="path56"
         d="m 0,0 v 11.426 h -1.697 v 0.822 H 0.949 L 0.949,0 Z"
         style="fill:#ffffff;fill-opacity:1;fill-rule:nonzero;stroke:none"
         transform="matrix(1.3333333,0,0,-1.3333333,574.6248,283.17707)" />
    </g>
    <g
       id="g56">
      <path
         id="path57"
         d="M 0,0 V 5.892 H -2.487 V 6.714 H 0.949 L 0.949,0 Z"
         style="fill:#ffffff;fill-opacity:1;fill-rule:nonzero;stroke:none"
         transform="matrix(1.3333333,0,0,-1.3333333,584.032,275.79853)" />
    </g>
    <g
       id="g57">
      <path
         id="path58"
         d="m 0,0 c 0,-0.687 -0.539,-1.245 -1.204,-1.245 -0.665,0 -1.204,0.558 -1.204,1.245 0,0.687 0.539,1.245 1.204,1.245 C -0.539,1.245 0,0.687 0,0"
         style="fill:#0063ed;fill-opacity:1;fill-rule:nonzero;stroke:none"
         transform="matrix(1.3333333,0,0,-1.3333333,494.18507,210.476)"
         clip-path="url(#clipPath59)" />
    </g>
    <g
       id="g59">
      <path
         id="path60"
         d="m 0,0 c 0,-0.687 -0.539,-1.245 -1.204,-1.245 -0.665,0 -1.204,0.558 -1.204,1.245 0,0.687 0.539,1.245 1.204,1.245 C -0.539,1.245 0,0.687 0,0"
         style="fill:#0063ed;fill-opacity:1;fill-rule:nonzero;stroke:none"
         transform="matrix(1.3333333,0,0,-1.3333333,498.9412,210.476)" />
    </g>
    <g
       id="g60">
      <path
         id="path61"
         d="m 0,0 c 0,-0.687 -0.539,-1.245 -1.204,-1.245 -0.665,0 -1.204,0.558 -1.204,1.245 0,0.687 0.539,1.245 1.204,1.245 C -0.539,1.245 0,0.687 0,0"
         style="fill:#0063ed;fill-opacity:1;fill-rule:nonzero;stroke:none"
         transform="matrix(1.3333333,0,0,-1.3333333,503.69773,210.476)" />
    </g>
    <g
       id="g61">
      <path
         id="path62"
         d="m 0,0 -16.708,28.939 c -1.304,2.26 -4.194,3.034 -6.453,1.729 l -3.431,-1.98 c -2.26,-1.305 -3.034,-4.194 -1.729,-6.454 l 16.708,-28.939 c 1.305,-2.259 4.194,-3.033 6.453,-1.729 l 3.431,1.981 C 0.53,-5.149 1.305,-2.26 0,0"
         style="fill:#0063ed;fill-opacity:1;fill-rule:nonzero;stroke:none"
         transform="matrix(1.3333333,0,0,-1.3333333,219.51453,224.20933)" />
    </g>
    <g
       id="g62">
      <path
         id="path63"
         d="m 0,0 c 0,-3.908 -3.065,-7.077 -6.845,-7.077 -3.781,0 -6.846,3.169 -6.846,7.077 0,3.908 3.065,7.077 6.846,7.077 C -3.065,7.077 0,3.908 0,0"
         style="fill:#2edebf;fill-opacity:1;fill-rule:nonzero;stroke:none"
         transform="matrix(1.3333333,0,0,-1.3333333,188.82027,173.95373)" />
    </g>
    <g
       id="g63">
      <path
         id="path64"
         d="m 0,0 -14.839,25.701 c -2.867,4.967 -10.036,4.967 -12.904,0 L -42.582,0 c -2.867,-4.967 0.717,-11.175 6.452,-11.175 2.662,0 5.122,1.42 6.452,3.725 l 1.935,3.35 c 2.868,4.967 10.037,4.967 12.904,0 l 1.935,-3.35 c 1.331,-2.305 3.79,-3.725 6.452,-3.725 5.735,0 9.32,6.208 6.452,11.175 m -21.291,6.293 c -3.781,0 -6.845,3.168 -6.845,7.077 0,3.908 3.064,7.076 6.845,7.076 3.781,0 6.845,-3.168 6.845,-7.076 0,-3.909 -3.064,-7.077 -6.845,-7.077"
         style="fill:#0063ed;fill-opacity:1;fill-rule:nonzero;stroke:none"
         transform="matrix(1.3333333,0,0,-1.3333333,189.7012,222.66053)" />
    </g>
  </g>
</svg>
